# xmcd
#
# Track frame offsets:
#	150
#	20662
#	38163
#	53539
#	71579
#	88360
#	114773
#	126067
#	152057
#	165424
#
# Disc length: 2597 seconds
#
# Revision: 0
# Processed by: cddbd v1.4PL0 Copyright (c) Steve Scherf et al.
# Submitted via: dBpowerAMP V4.0
#
DISCID=770a230a
DTITLE=Martin Silveira - Appomattox
DYEAR=2002
DGENRE=Blues
TTITLE0=Tear Me to the Ground
TTITLE1=Thru the Window of My Backdoor
TTITLE2=Non-Dairy Creamer
TTITLE3=By Your Side
TTITLE4=Saturday Morning
TTITLE5=The Story of Catfish Slim
TTITLE6=It's Good to Be Home
TTITLE7=Sorry
TTITLE8=Diggin' in the Boneyard
TTITLE9=Soulmate Valentine
EXTD=
EXTT0=
EXTT1=
EXTT2=
EXTT3=
EXTT4=
EXTT5=
EXTT6=
EXTT7=
EXTT8=
EXTT9=
PLAYORDER=
